<?xml version="1.0" standalone="no"?>
<!DOCTYPE svg PUBLIC "-//W3C//DTD SVG 20010904//EN"
 "http://www.w3.org/TR/2001/REC-SVG-20010904/DTD/svg10.dtd">
<svg version="1.0" xmlns="http://www.w3.org/2000/svg"
 width="200.000000pt" height="200.000000pt" viewBox="0 0 200.000000 200.000000"
 preserveAspectRatio="xMidYMid meet">
<metadata>
Created by potrace 1.14, written by Peter Selinger 2001-2017
</metadata>
<g transform="translate(0.000000,200.000000) scale(0.100000,-0.100000)"
fill="#000000" stroke="none">
<path d="M726 1982 c-3 -5 -18 -8 -33 -7 l-28 1 1 -95 c1 -53 -2 -101 -8 -108
-6 -7 -5 -14 2 -18 10 -6 7 -45 -6 -66 -4 -7 -3 -9 4 -5 7 4 10 -1 9 -14 -1
-11 -5 -20 -10 -20 -4 0 -5 -6 0 -12 12 -21 12 -38 0 -38 -8 0 -8 -3 -2 -8 6
-4 11 -18 11 -32 3 -52 9 -85 19 -92 6 -5 5 -8 -3 -8 -11 0 -10 -3 1 -14 8 -8
13 -26 12 -40 -2 -15 0 -24 4 -21 5 2 13 -7 20 -21 7 -17 8 -23 0 -19 -6 4 -5
-2 3 -14 7 -12 16 -21 20 -21 5 0 8 -8 8 -19 0 -10 7 -24 15 -31 9 -7 14 -19
11 -27 -3 -8 -2 -11 3 -8 5 3 12 -4 16 -15 3 -11 11 -20 17 -20 5 0 7 -7 4
-16 -3 -8 -2 -12 4 -9 9 6 14 -8 11 -27 0 -5 5 -7 12 -5 6 1 11 -6 11 -15 -1
-12 5 -18 20 -18 16 0 18 -2 7 -9 -11 -7 -9 -10 8 -16 12 -4 21 -15 21 -26 0
-11 5 -17 10 -14 6 3 10 1 10 -5 0 -6 5 -8 10 -5 6 4 9 1 8 -6 -2 -7 7 -18 20
-24 12 -5 22 -13 22 -18 0 -4 4 -5 10 -2 6 4 7 -1 3 -11 -4 -11 -3 -15 5 -10
6 3 13 2 17 -4 4 -6 10 -8 15 -5 4 3 11 -2 14 -11 3 -8 10 -12 16 -9 5 3 10 1
10 -4 0 -6 7 -11 15 -11 8 0 15 -4 15 -10 0 -5 11 -10 25 -10 14 0 28 -6 31
-14 3 -8 16 -12 35 -10 21 3 28 0 23 -8 -5 -8 -2 -9 9 -5 10 3 17 2 17 -3 0
-5 7 -6 17 -3 10 4 14 2 10 -4 -3 -5 0 -10 8 -10 8 0 11 5 8 10 -4 6 -1 7 8 1
14 -8 29 -13 60 -16 9 -1 16 -8 16 -15 0 -10 -4 -10 -14 -1 -11 9 -13 8 -11
-3 2 -8 -4 -13 -14 -13 -10 1 -16 -3 -15 -10 1 -6 -6 -10 -17 -8 -11 2 -15 -1
-11 -7 3 -6 1 -12 -4 -12 -6 -1 -17 -2 -23 -3 -7 -1 -12 -7 -11 -14 2 -6 -4
-9 -13 -5 -9 3 -14 0 -12 -8 2 -9 -4 -13 -16 -11 -11 2 -15 -1 -11 -8 4 -7 -2
-14 -14 -17 -11 -3 -18 -9 -15 -14 3 -5 0 -8 -8 -7 -7 2 -12 -5 -12 -15 2 -15
-1 -16 -14 -5 -12 10 -14 10 -8 0 4 -7 1 -15 -8 -18 -8 -3 -18 -15 -21 -25 -6
-17 -9 -18 -23 -7 -13 11 -15 11 -9 -4 3 -10 0 -24 -8 -32 -8 -7 -11 -17 -7
-20 3 -4 -1 -4 -11 0 -12 4 -17 1 -17 -10 0 -9 -4 -16 -9 -16 -6 0 -8 -9 -6
-20 2 -11 0 -18 -4 -16 -4 3 -15 -4 -24 -15 -9 -10 -14 -19 -11 -19 3 0 -1 -7
-10 -15 -8 -8 -21 -15 -28 -15 -10 0 -9 -3 2 -10 13 -8 12 -10 -2 -10 -10 0
-18 -5 -18 -11 0 -5 6 -7 13 -3 6 4 -1 -5 -16 -20 -16 -15 -26 -33 -24 -41 4
-9 0 -12 -12 -10 -14 2 -17 -2 -13 -20 3 -16 -2 -27 -18 -35 -12 -6 -19 -14
-16 -17 3 -3 -2 -12 -12 -20 -10 -9 -11 -12 -2 -7 11 6 10 2 -3 -13 -9 -11
-14 -23 -10 -26 3 -4 1 -7 -5 -7 -7 0 -12 -7 -12 -16 0 -9 -8 -23 -17 -31 -10
-7 -13 -13 -8 -12 18 4 45 -13 38 -24 -4 -6 -1 -7 7 -2 7 4 15 3 19 -2 3 -5
22 -18 42 -30 28 -16 40 -18 49 -10 10 9 11 9 6 0 -5 -9 -1 -13 11 -13 11 0
25 -6 32 -12 8 -7 11 -8 8 -2 -4 7 4 11 23 10 17 -1 30 -5 30 -11 0 -7 3 -7 8
0 10 14 43 16 35 1 -5 -8 -3 -8 8 0 8 6 25 11 38 12 13 0 27 6 31 13 4 6 13 8
19 5 6 -4 11 -2 11 4 0 6 4 9 9 5 5 -3 16 1 24 9 8 8 17 12 21 9 3 -4 6 -1 6
6 0 7 5 9 10 6 6 -3 10 -1 10 5 0 6 11 15 25 20 14 5 25 14 25 20 0 5 7 10 16
10 8 0 12 4 9 10 -3 5 5 15 19 21 14 7 23 16 20 20 -3 5 0 9 6 9 6 0 9 3 7 8
-3 4 5 16 16 27 11 11 16 14 12 6 -5 -9 -4 -12 3 -7 6 4 8 14 5 23 -4 11 -3
14 5 9 7 -4 12 -1 12 8 0 9 5 16 11 16 5 0 7 4 4 10 -3 5 -1 10 4 10 6 0 11 7
11 15 0 8 5 15 11 15 5 0 8 4 4 9 -3 6 5 20 17 32 13 12 16 18 8 14 -10 -6 -8
-1 4 13 14 17 16 22 5 22 -9 1 -6 5 6 13 12 7 19 20 17 30 -2 11 3 17 15 17
11 0 14 3 7 8 -8 5 -8 15 1 35 6 15 14 25 17 22 3 -3 3 6 1 20 -3 15 -1 25 6
25 6 0 11 5 11 11 0 5 -6 7 -12 4 -7 -4 -6 -1 2 7 16 14 20 46 7 65 -5 9 -3
11 7 7 11 -4 14 2 12 26 -1 17 1 33 6 36 5 3 6 10 3 15 -4 5 -1 9 5 9 7 0 8 6
1 18 -5 10 -6 24 -1 32 4 7 6 20 2 28 -3 9 -1 13 4 9 6 -3 10 7 9 23 0 15 -3
26 -7 23 -5 -2 -8 1 -8 6 0 6 5 11 11 11 8 0 8 4 0 14 -9 11 -9 16 0 21 8 6 7
10 -2 16 -8 5 -9 9 -4 9 6 0 11 9 11 20 0 11 -5 20 -11 20 -5 0 -3 5 5 10 9 6
11 10 3 10 -7 0 -10 7 -6 17 4 10 2 14 -4 10 -5 -3 -10 0 -10 8 0 8 4 12 8 10
4 -3 10 2 13 10 3 9 -1 18 -9 21 -8 4 -15 10 -15 16 0 5 5 6 11 2 8 -4 8 0 0
15 -7 11 -8 21 -4 21 4 0 1 5 -7 10 -12 8 -12 10 -1 10 9 0 10 4 4 13 -6 6 -9
22 -8 35 1 12 -3 22 -8 22 -6 0 -7 3 -4 7 4 3 -1 12 -11 20 -16 12 -15 13 3 6
19 -6 19 -6 3 14 -21 23 -24 38 -6 27 7 -5 3 4 -9 20 -12 15 -19 34 -16 42 3
8 -2 17 -12 20 -13 5 -14 9 -3 15 10 6 8 9 -7 9 -17 0 -17 2 -5 10 12 8 12 10
-5 11 -12 0 -15 3 -7 6 10 4 9 9 -5 20 -10 8 -11 11 -3 7 13 -7 13 -5 1 9 -7
9 -17 15 -21 12 -4 -2 -6 7 -4 20 1 15 -2 23 -8 19 -5 -3 -12 3 -15 15 -3 11
-10 18 -16 14 -5 -3 -7 -1 -3 5 3 6 2 13 -4 17 -6 4 -7 11 -4 17 5 7 1 9 -9 5
-10 -4 -16 -2 -14 6 1 7 -4 11 -11 9 -8 -1 -11 2 -7 8 3 5 1 10 -5 10 -6 0 -8
5 -5 10 3 6 1 10 -5 10 -13 0 -90 77 -83 84 3 2 -6 2 -19 -1 -18 -4 -20 -3 -8
6 13 9 13 11 -2 12 -32 3 -36 4 -45 13 -5 5 -3 6 5 2 6 -4 12 -2 12 5 0 6 -8
9 -20 6 -11 -3 -18 -1 -14 4 3 5 -2 9 -10 9 -9 0 -16 5 -16 10 0 6 -9 10 -19
10 -11 0 -21 4 -23 9 -1 5 -12 11 -23 13 -11 1 -26 9 -34 16 -7 7 -20 11 -27
8 -8 -3 -14 -2 -14 2 0 4 -11 12 -25 19 -19 8 -23 8 -18 0 4 -7 -1 -5 -12 3
-10 8 -26 14 -37 12 -10 -2 -18 1 -18 7 0 6 -6 8 -14 5 -8 -3 -17 -1 -20 5 -4
6 -14 7 -23 4 -12 -5 -14 -3 -8 8 7 11 6 12 -6 3 -19 -14 -45 -11 -41 4 1 7
-2 12 -8 12 -5 0 -10 -5 -10 -12 0 -9 -3 -9 -11 -1 -6 6 -18 9 -25 6 -8 -3
-21 0 -28 6 -8 7 -17 8 -20 3z"/>
<path d="M610 1959 c0 -6 -7 -8 -16 -5 -12 5 -15 2 -10 -10 4 -12 2 -15 -9
-10 -8 3 -14 0 -12 -7 1 -7 -6 -11 -16 -11 -15 2 -16 -1 -5 -14 11 -13 10 -15
-5 -9 -11 4 -16 3 -12 -3 3 -6 1 -10 -5 -10 -6 0 -9 -4 -6 -9 3 -5 -1 -12 -10
-15 -8 -3 -12 -10 -9 -16 3 -5 1 -10 -6 -10 -7 0 -9 -3 -6 -7 4 -3 -1 -12 -11
-20 -9 -8 -11 -12 -4 -8 6 3 12 1 12 -4 0 -6 -4 -11 -9 -11 -5 0 -12 -7 -15
-16 -4 -10 -2 -13 7 -8 9 6 9 5 0 -7 -6 -8 -13 -23 -15 -34 -1 -11 -7 -23 -13
-27 -6 -5 -4 -12 5 -18 12 -7 12 -10 1 -10 -7 0 -11 -6 -7 -15 3 -8 0 -15 -6
-15 -6 0 -5 -6 3 -17 8 -9 9 -14 3 -10 -7 4 -9 -18 -7 -71 2 -42 5 -94 6 -114
1 -21 5 -38 9 -38 4 0 5 -7 2 -15 -4 -8 -2 -15 2 -15 5 0 10 -12 11 -27 9
-132 10 -160 1 -170 -5 -7 -7 -17 -3 -23 3 -5 2 -10 -4 -10 -6 0 -8 -7 -5 -15
4 -8 1 -15 -6 -15 -6 0 -9 -4 -6 -9 3 -5 -1 -12 -10 -15 -14 -6 -14 -9 6 -26
12 -11 27 -17 31 -14 5 3 9 0 9 -6 0 -6 4 -8 10 -5 6 3 10 1 10 -4 0 -6 3 -10
8 -10 25 4 34 -2 23 -14 -6 -8 -8 -17 -4 -20 3 -4 2 -7 -3 -7 -11 0 -11 -70 0
-88 4 -7 15 -11 24 -7 9 3 13 3 9 -1 -4 -4 1 -16 10 -27 10 -11 12 -17 5 -13
-9 6 -12 2 -10 -10 4 -26 26 -47 41 -41 9 3 14 -7 15 -31 2 -19 5 -39 8 -44 3
-4 1 -8 -4 -8 -6 0 -8 -9 -5 -20 3 -11 13 -20 22 -20 9 0 22 -5 29 -12 9 -9
13 -7 18 5 3 9 10 14 16 11 5 -3 17 1 26 9 9 8 25 13 35 12 9 -2 17 0 17 5 0
4 9 10 21 13 14 4 18 10 13 19 -6 11 -5 11 8 0 13 -10 18 -9 29 5 13 17 13 17
-6 3 -18 -14 -19 -14 -7 2 8 9 20 14 28 11 7 -3 17 2 20 11 3 9 10 13 15 10 5
-3 12 1 15 10 6 16 44 18 44 2 0 -5 3 -7 6 -3 9 9 34 -19 34 -38 0 -10 5 -13
13 -9 9 6 9 4 2 -7 -12 -17 -13 -39 -1 -57 4 -7 2 -19 -4 -27 -7 -8 -10 -15
-6 -15 4 0 0 -12 -7 -27 -8 -16 -12 -34 -10 -40 3 -7 0 -13 -6 -13 -8 0 -8 -6
1 -19 6 -10 18 -17 26 -14 11 5 11 7 1 14 -11 6 -10 9 4 15 9 3 15 9 12 13 -2
4 7 19 21 34 13 14 24 29 24 32 0 12 28 34 34 28 3 -4 6 -1 6 5 0 7 11 22 25
34 14 12 23 28 21 35 -3 7 5 19 17 28 12 8 16 15 10 15 -7 0 -10 7 -6 15 3 10
0 15 -8 13 -8 -2 -13 2 -12 8 1 6 -5 11 -13 12 -8 1 -21 3 -29 4 -8 1 -15 5
-15 10 0 5 -5 6 -12 2 -8 -5 -9 -2 -5 10 4 9 3 14 -2 11 -12 -6 -61 15 -61 27
0 4 -5 8 -11 8 -7 0 -18 8 -26 18 -8 10 -11 11 -7 2 7 -13 6 -13 -9 -1 -10 8
-15 16 -13 19 7 6 -39 42 -55 42 -7 0 -10 3 -6 6 8 8 -16 33 -25 27 -5 -2 -8
5 -8 17 0 12 -4 18 -10 15 -6 -3 -10 4 -10 17 0 19 -2 20 -11 8 -9 -12 -10
-11 -6 7 3 12 2 22 -2 21 -3 0 -13 0 -21 1 -13 1 -13 2 0 11 13 8 12 10 -4 10
-13 0 -17 5 -13 20 3 11 1 18 -4 15 -7 -5 -43 49 -44 67 0 4 -8 17 -18 29 -10
11 -19 29 -20 39 -1 10 -4 17 -8 14 -4 -2 -10 0 -14 6 -3 5 -1 10 6 10 8 0 8
4 -1 15 -7 8 -10 21 -6 30 3 8 0 14 -7 12 -7 -1 -11 6 -9 16 2 9 -2 17 -8 17
-5 0 -10 5 -10 11 0 5 5 7 11 3 6 -3 4 4 -4 17 -8 13 -13 36 -12 52 2 15 0 25
-4 23 -4 -3 -9 20 -10 52 -2 68 -4 83 -14 98 -3 6 -3 14 1 18 11 12 9 66 -2
66 -7 0 -8 3 -1 8 14 10 16 45 2 54 -7 5 -8 8 -2 8 13 0 14 59 1 79 -6 10 -6
12 3 7 8 -5 12 -3 10 5 -4 34 2 70 11 64 6 -3 7 1 4 9 -7 19 -14 21 -14 5z"/>
<path d="M950 501 c0 -5 6 -14 14 -20 12 -10 13 -8 9 8 -5 21 -23 30 -23 12z"/>
</g>
</svg>
